<?xml version="1.0" encoding="UTF-8" standalone="no"?>
<svg
   xmlns:dc="http://purl.org/dc/elements/1.1/"
   xmlns:cc="http://creativecommons.org/ns#"
   xmlns:rdf="http://www.w3.org/1999/02/22-rdf-syntax-ns#"
   xmlns:svg="http://www.w3.org/2000/svg"
   xmlns="http://www.w3.org/2000/svg"
   xmlns:sodipodi="http://sodipodi.sourceforge.net/DTD/sodipodi-0.dtd"
   xmlns:inkscape="http://www.inkscape.org/namespaces/inkscape"
   version="1.1"
   id="svg10"
   xml:space="preserve"
   width="495.8812"
   height="285.75882"
   viewBox="0 0 495.88122 285.75882"
   sodipodi:docname="logo.svg"
   inkscape:version="1.0.1 (3bc2e813f5, 2020-09-07)"><metadata
     id="metadata16"><rdf:RDF><cc:Work
         rdf:about=""><dc:format>image/svg+xml</dc:format><dc:type
           rdf:resource="http://purl.org/dc/dcmitype/StillImage" /><dc:title></dc:title></cc:Work></rdf:RDF></metadata><defs
     id="defs14" /><sodipodi:namedview
     pagecolor="#ffffff"
     bordercolor="#666666"
     borderopacity="1"
     objecttolerance="10"
     gridtolerance="10"
     guidetolerance="10"
     inkscape:pageopacity="0"
     inkscape:pageshadow="2"
     inkscape:window-width="1920"
     inkscape:window-height="1027"
     id="namedview12"
     showgrid="false"
     inkscape:zoom="2.1091071"
     inkscape:cx="288.11671"
     inkscape:cy="142.58196"
     inkscape:window-x="-8"
     inkscape:window-y="-8"
     inkscape:window-maximized="1"
     inkscape:current-layer="g20" /><g
     id="g18"
     inkscape:groupmode="layer"
     inkscape:label="EcoVision"
     transform="matrix(1.3333333,0,0,-1.3333333,-313.31946,568.40748)"><g
       id="g20"><path
         d="m 234.9896,294.9999 c 36.775,56.5186 118.9893,144.1043 201.8134,129.7372 55.4857,-7.1448 133.4588,-60.3953 170.0975,-128.6895 C 568.6271,352.1432 498.1431,401.514 434.5061,404.2664 364.7395,407.2839 310.4674,339.5409 340.09,274.557 c 43.6269,-80.9745 142.2349,-65.7924 184.515,5.2412 -17.7086,-27.3058 -27.2199,-50.7095 -76.2704,-65.262 -106.9727,-20.2235 -153.8886,84.0067 -111.9146,165.907 -29.9429,-21.9915 -56.9886,-47.5489 -77.8431,-80.7256 8.76,-31.1842 22.7594,-35.6009 30.4033,-41.4114 -18.2582,-1.7912 -29.8355,24.7244 -53.9906,36.6937"
         style="fill:#1e843d;fill-opacity:1;fill-rule:evenodd;stroke:none"
         id="path22" /><path
         d="m 426.81,394.5645 c 44.8731,0 81.2495,-36.4056 81.2495,-81.3143 0,-44.9105 -36.3764,-81.3164 -81.2495,-81.3164 -44.8713,0 -81.2494,36.4059 -81.2494,81.3164 0,44.9087 36.3781,81.3143 81.2494,81.3143"
         style="fill:#5cc133;fill-opacity:1;fill-rule:evenodd;stroke:none"
         id="path24" /><path
         d="m 381.0345,246.0651 c -1.3031,0.8898 -2.5784,1.8187 -3.8245,2.7816 0.0731,0.4377 0.0796,1.0216 -0.0343,1.8596 -0.392,2.8825 0,4.5873 0,8.1252 0,3.5382 1.9667,1.8351 -0.2634,5.2413 -2.2254,3.4081 -0.9158,1.1795 -3.0126,6.2906 -2.0971,5.1112 -2.7525,3.4078 -2.4891,6.4205 0.2605,3.0143 0.5238,5.5049 0.7857,7.8636 0.2603,2.3587 1.7034,3.8001 0.1319,6.2906 -1.5747,2.4905 0.0782,1.2345 -2.5166,3.1071 -2.5963,1.8722 -2.2026,-0.0927 -4.4295,4.1008 -2.2303,4.1936 -2.3604,4.7175 -3.4081,7.0762 -1.0491,2.3587 -1.7047,5.1111 -3.1444,7.0764 -1.4429,1.9667 -2.2286,2.2286 -2.2286,3.5379 0,1.3113 0.7857,10.2223 1.1795,12.8429 0.392,2.6207 3.8015,11.0081 3.8015,11.6637 0,0.6554 0.9176,1.7031 0.392,4.1936 -0.5252,2.4888 -0.5252,5.8969 -0.5252,7.8636 0,1.965 -0.392,4.1919 -1.046,5.5032 -0.1661,0.3302 -0.3824,0.8019 -0.61,1.3224 3.1963,4.6573 6.8581,8.9665 10.9315,12.8559 0.54,-0.7239 1.0165,-1.6169 1.3402,-2.9086 0.7858,-3.1445 -0.6539,-1.965 0.7858,-4.8492 1.4428,-2.8826 2.8826,-1.965 2.8826,-3.93 0,-1.9667 -1.7031,-3.1462 -0.3921,-3.8018 1.3096,-0.654 3.2763,0.3937 4.9811,-0.5239 1.703,-0.9172 2.5083,-4.2488 2.357,-0.9172 -0.5318,11.8065 3.1853,5.5893 3.4098,5.6349 2.1228,0.4457 -2.0971,-2.097 -1.1795,-4.8478 0.9158,-2.7524 2.0951,-3.6697 1.703,-4.981 -0.3934,-1.3093 -1.5746,-2.4888 -2.0968,-3.4061 -0.5269,-0.9176 -5.1125,-1.0494 -5.7665,-2.6206 -0.6556,-1.5733 -1.8366,-3.1462 -0.5255,-5.635 1.3127,-2.4906 1.4428,-4.1939 2.4888,-4.8493 1.0494,-0.6556 1.9667,0.1301 3.0161,1.965 1.0474,1.8349 2.6206,6.1588 3.276,4.1936 0.6539,-1.965 0.2605,-2.8826 1.5732,-4.5873 1.311,-1.7031 2.8825,-3.0127 3.4064,-6.9443 0.5235,-3.932 0.5235,-5.635 0.6553,-6.9461 0.1319,-1.3096 -0.6553,-1.9652 -3.014,-0.392 -2.3604,1.5713 -4.1939,2.4888 -4.1939,0.654 0,-1.8335 0.7875,-1.9653 -1.1792,-2.3587 -1.9667,-0.3924 -3.8001,-1.1795 -4.1922,-2.2272 -0.3937,-1.0491 -3.9333,-3.7999 -4.4572,-4.7174 -0.5221,-0.9176 -0.5221,-2.2286 -1.703,-3.1462 -1.1795,-0.9173 -1.3096,-2.0968 -2.2286,-0.1301 -0.9176,1.9652 -1.0477,3.1445 -3.0127,2.3587 -1.9669,-0.7872 -1.7325,2.5052 -2.8825,-1.4411 -1.1517,-3.9481 -0.1548,-6.084 1.7013,-8.2574 1.8579,-2.1716 2.6207,-3.1444 2.7542,-5.6347 0.1284,-2.4891 -1.573,-2.359 0.5221,-3.4064 2.0968,-1.0494 3.6697,-0.1318 6.4222,-1.4428 2.7524,-1.3096 4.324,-3.5382 5.2429,-4.7177 0.9176,-1.1792 2.619,-3.4061 3.8002,-5.6347 1.1792,-2.2272 0.7855,-1.9653 2.4888,-3.0144 1.703,-1.0477 3.9316,-2.2272 5.5032,-3.6683 1.5729,-1.4414 3.0158,-2.3587 2.3587,-3.4081 -0.654,-1.0474 -2.2255,-1.703 -2.3587,-4.0617 -0.1301,-2.3588 0,-2.7525 -2.2269,-4.7175 -2.2272,-1.9666 -4.3257,-1.0494 -5.3717,-3.67 -1.0508,-2.6206 0.1287,-2.3587 -1.5746,-4.0617 -1.7014,-1.7048 -2.619,0.5238 -3.4061,-3.0144 -0.7858,-3.5382 -1.3096,-3.67 -0.6557,-5.7668 z"
         style="fill:#1e843d;fill-opacity:1;fill-rule:evenodd;stroke:none"
         id="path26" /><path
         d="m 388.9157,358.5589 c 0.3792,-3.7902 0.2539,-4.1562 1.0054,-6.357 0.7532,-2.1994 0.8802,-0.8558 -0.2506,-4.0329 -1.1304,-3.1784 -2.6368,-2.9344 -1.6086,-5.2052 1.0783,-1.3096 3.6357,0.5235 4.4455,3.1459 0.9193,2.6206 1.5733,8.5175 1.5733,9.6967 0,1.1795 -1.3096,2.7525 -1.3096,2.7525 z"
         style="fill:#1e843d;fill-opacity:1;fill-rule:evenodd;stroke:none"
         id="path28" /><path
         d="m 390.6743,362.8828 c 0.2602,1.573 -0.1335,1.8349 1.3096,2.7525 1.4428,0.9173 1.4428,1.0491 4.3254,3.5379 2.8825,2.4905 2.8825,2.7524 3.9299,3.9319 1.0494,1.1792 3.5399,0.7855 3.5399,0.7855 0,0 0.2619,-1.965 2.4888,-2.0968 2.2269,-0.1301 7.9954,1.1795 10.3524,0.1318 2.3588,-1.0491 1.8366,-2.4905 2.7525,-3.4078 0.9176,-0.9175 0.7858,-1.8334 1.8349,-1.9652 1.0476,-0.1318 1.4414,-1.3111 -0.1319,-2.3587 -1.5729,-1.0491 -2.4905,-1.4412 -2.4905,-4.9794 0,-3.5396 -1.8331,-5.5049 -2.4888,-7.7318 -0.6539,-2.2286 1.0494,-2.4905 -0.3937,-3.9316 -1.4395,-1.4414 0,1.3093 -4.7157,-2.2286 -4.7192,-3.5382 -3.5382,-0.5239 -6.5523,-6.1588 -3.0161,-5.635 -1.9344,-4.2914 -3.6065,-6.7167 -1.6708,-2.4239 -3.1771,-0.3595 -2.3914,4.3579 0.7875,4.7175 -0.9484,3.7999 0.3629,6.8142 1.3093,3.0144 1.5712,2.4906 1.703,6.2907 0.1301,3.7998 0.1284,5.3731 -0.7871,7.7318 -0.9159,2.3587 -2.8826,4.1935 -0.7875,5.8966 2.0968,1.7033 4.0635,1.9653 5.2447,3.67 1.1792,1.7031 1.4394,2.0968 1.3076,2.7525 -0.1284,0.6539 -0.6523,1.3093 -2.0951,0.1301 -1.4428,-1.1795 -2.6206,0.2619 -4.7191,-2.7525 -2.0968,-3.0143 -1.046,-2.4888 -3.1428,-4.3237 -2.0968,-1.8351 -1.7065,-3.5382 -3.2763,-1.8351 -1.5729,1.7033 -1.5729,1.7033 -1.5729,1.7033"
         style="fill:#1e843d;fill-opacity:1;fill-rule:evenodd;stroke:none"
         id="path30" /><path
         d="m 485.9444,365.7668 c 2.0968,-2.622 3.8002,-5.3728 5.5049,-9.8286 1.7048,-4.4555 3.8016,-7.2079 4.1936,-7.9937 0.3937,-0.7871 0.654,0.9159 0.654,-8.3871 0,-9.305 0.7888,-11.5336 -0.1302,-15.5954 -0.9158,-4.062 -3.0126,-1.965 -2.7524,-4.7174 0.2619,-2.7524 1.1795,-3.67 1.7048,-5.635 0.5238,-1.9667 1.0476,-2.6206 -0.262,-3.1462 -1.311,-0.5238 -3.6697,2.6224 -3.9333,1.0494 -0.2602,-1.5732 1.0508,-1.5732 1.1795,-3.9319 0.1332,-2.3587 -1.3096,-2.3587 -1.4397,-4.5856 -0.1319,-2.2286 0.1301,-4.3254 -0.6574,-6.4222 -0.7855,-2.0971 -0.2616,-2.6206 -1.8332,-2.7524 -1.5715,-0.1301 -2.8825,-0.5239 -3.4081,0.9173 -0.5235,1.4414 -3.276,3.9319 -4.1918,2.8842 -0.9176,-1.0491 -2.0968,-2.6223 -3.0144,-4.8492 -0.919,-2.2286 -0.2619,-4.0635 -1.7047,-5.3731 -1.4398,-1.311 -2.3573,-4.5873 -3.0144,0.2619 -0.6557,4.8493 -0.1301,5.2413 -2.2252,6.4208 -2.0971,1.1792 -2.4905,1.7047 -4.589,1.8348 -2.0968,0.1319 -5.8952,1.1793 -5.2399,-0.2619 0.6526,-1.4411 7.2049,-0.2619 1.7034,-3.9316 -5.5066,-3.6683 -5.243,-4.5859 -6.1606,-5.1098 -0.9172,-0.5252 -1.8348,-3.8015 -2.8825,0.1302 -1.0491,3.9319 -3.6697,8.1255 -3.6697,8.1255 0,0 -2.3587,0.7857 -1.5716,-2.0968 0.7858,-2.8826 1.5716,-6.946 3.4047,-8.519 1.8366,-1.5715 6.5526,-2.359 6.5526,-3.6683 0,-1.3113 -7.4682,-6.4225 -7.5986,-9.305 -0.1332,-2.8823 -3.8015,-12.7111 -4.9807,-14.4159 -1.1812,-1.703 -2.3573,-3.5379 -3.8001,-5.5032 -1.4429,-1.9649 -1.3096,-3.276 -3.2763,-3.1444 -1.9667,0.1301 -1.9667,-2.6221 -3.5396,1.3096 -1.5699,3.9316 -1.8335,3.0143 -1.7031,6.0287 0.1332,3.0141 -0.7858,6.8142 -0.7858,8.1252 0,1.3096 0.7858,2.7508 0.3921,4.8478 -0.3921,2.0968 -1.3096,1.573 -2.2255,4.5873 -0.9173,3.0144 -0.1332,3.1445 -1.573,4.4555 -1.4428,1.3111 -1.0493,1.1795 -5.1128,1.4412 -4.0618,0.2619 -4.1936,-1.0474 -6.289,0.9175 -2.0967,1.965 -4.0634,2.4906 -4.7188,4.9794 -0.6539,2.4905 -1.5732,3.0143 -1.1795,5.7668 0.3955,2.7524 -1.5715,4.0618 1.1795,5.1111 2.7522,1.0477 4.7188,1.1793 5.2427,3.2763 0.5255,2.0968 1.0494,1.965 0.7858,3.6681 -0.2603,1.7047 0.4277,1.0819 1.6721,1.2787 1.243,0.1967 5.5684,0.3937 5.9621,0.2619 0.3921,-0.1318 1.4429,0 2.4888,-1.1143 1.0508,-1.1143 0.4604,-1.8349 3.1476,-2.5557 2.6859,-0.7206 3.8651,-1.2444 7.7318,-1.0474 3.8651,0.1967 6.224,-1.1143 6.7476,1.1792 0.5238,2.2938 4.4558,2.162 0.4572,3.4064 -3.9968,1.2461 -4.9127,1.1143 -7.5333,1.2461 -2.6224,0.1301 -2.162,0.6539 -2.8191,2.4888 -0.6556,1.8349 -1.8334,4.2605 -2.6189,3.3429 -0.7858,-0.9176 -0.9193,-3.9969 -2.162,-3.4081 -1.2478,0.5907 -0.5904,1.9001 -2.3604,2.0971 -1.77,0.1967 -3.5396,1.5729 -4.7174,0 -1.1778,-1.5733 -1.4429,-2.2938 -2.4888,-3.2763 -1.0494,-0.9825 -2.2286,-2.162 -2.689,-1.9001 -0.4572,0.262 -0.9825,0.9825 -1.1795,1.3762 -0.1967,0.3938 -1.6364,-0.1967 -0.6522,2.0968 0.9825,2.2938 2.0951,2.4889 3.4047,3.8002 1.3127,1.311 1.9,0.1967 1.9,2.6206 0,2.4253 0.919,2.6872 -0.3271,4.0635 -1.2461,1.3745 -1.8998,1.0476 -2.4236,3.3412 -0.5256,2.2937 -0.4589,2.4891 0.3268,3.7349 0.7875,1.2444 -0.1953,2.162 1.0477,1.8351 1.2461,-0.3288 1.3762,-0.6556 2.6223,-2.6223 1.2459,-1.965 0.8524,-4.1936 3.0127,-2.162 2.1634,2.0319 1.7697,1.7034 3.2128,2.0319 1.4394,0.3268 0.1301,-0.2619 2.6872,-0.4589 2.5555,-0.1968 1.8318,-1.965 3.9952,0.3937 2.1637,2.3587 2.7541,3.9302 4.1286,4.1922 1.3763,0.2633 0.5239,2.819 -0.2636,2.819 -0.7857,0 -2.0951,-0.8524 -1.046,2.2921 1.046,3.1459 0.654,5.8317 -0.7888,4.3906 -1.4398,-1.4414 -1.2428,-1.7034 -2.7491,-4.7826 -1.508,-3.081 -1.9018,-5.7016 -2.4905,-6.6192 -0.589,-0.9176 -1.3127,-2.6206 -1.7033,-1.7683 -0.3935,0.8507 0.0634,1.9001 -1.2462,2.8174 -1.3093,0.9176 -2.2918,1.3096 -1.9666,3.2114 0.3271,1.8997 0.7857,2.5554 1.5732,4.9793 0.7872,2.4236 -0.8524,1.7683 2.8173,3.6031 3.6684,1.8349 5.635,4.7841 8.0604,5.5698 2.4222,0.7858 3.473,1.2444 4.519,0 1.051,-1.2444 2.6875,-1.311 0.7239,-2.6206 -1.9667,-1.311 -3.3429,-2.0316 -2.7524,-3.1459 0.589,-1.1129 0.197,-3.4716 2.4222,-1.7033 2.2303,1.7699 1.9667,1.0493 4.062,3.4081 2.0985,2.3587 3.4745,3.9968 5.1778,3.668 1.7048,-0.3269 2.7507,-0.8507 4.8475,-2.5555 2.0968,-1.703 4.3271,-5.176 5.6367,-5.5031 1.3093,-0.3269 2.8157,-1.3111 0.3269,3.2763 -2.4906,4.5873 -5.1095,6.8794 -5.8953,8.0586 -0.7871,1.1795 -2.6872,2.3604 -0.265,3.8667 2.427,1.5063 3.081,1.573 3.276,3.2763 0.197,1.703 0.2653,4.5873 1.5732,6.4874 1.3111,1.8997 1.0508,5.6347 3.6048,2.4236 2.5555,-3.2111 1.7683,-3.7349 5.7666,-3.5379 3.9968,0.1967 5.1763,1.1792 6.4207,1.9649 1.2461,0.7875 2.6224,2.0968 3.2111,2.162 0.5905,0.0666 1.5389,0.7546 1.5389,0.7546"
         style="fill:#1e843d;fill-opacity:1;fill-rule:evenodd;stroke:none"
         id="path32" /><path
         d="m 538.0367,334.6104 c 2.9704,-22.421 -37.4388,-24.6495 -13.1048,-50.4525 10.476,10.3102 17.1357,22.4504 18.8716,36.9556 1.7535,-14.2189 -3.6244,-26.1459 -11.662,-37.2175 29.5152,9.4431 24.8871,35.7015 5.8952,50.7144"
         style="fill:#1e843d;fill-opacity:1;fill-rule:evenodd;stroke:none"
         id="path34" /><path
         d="m 547.9645,286.746 c 3.0161,2.4239 6.554,8.9761 6.554,8.9761 10.5607,-3.6535 17.0447,-9.386 19.3938,-17.2332 -17.2709,5.1713 -27.7614,-24.588 -39.6431,-0.2619 5.8791,1.4916 8.1791,3.4242 12.4818,5.9635 0.0813,-0.244 17.9833,1.7178 16.9081,2.1943 -1.2688,-0.3742 -15.9336,-0.1171 -15.6946,0.3612"
         style="fill:#5cc133;fill-opacity:1;fill-rule:evenodd;stroke:none"
         id="path36" /></g></g></svg>
