<?xml version="1.0" encoding="utf-8"?>
<!-- Generator: Adobe Illustrator 25.0.0, SVG Export Plug-In . SVG Version: 6.00 Build 0)  -->
<svg version="1.1"
	 id="svg10" sodipodi:docname="logo.svg" xmlns:cc="http://creativecommons.org/ns#" xmlns:dc="http://purl.org/dc/elements/1.1/" xmlns:inkscape="http://www.inkscape.org/namespaces/inkscape" xmlns:rdf="http://www.w3.org/1999/02/22-rdf-syntax-ns#" xmlns:sodipodi="http://sodipodi.sourceforge.net/DTD/sodipodi-0.dtd" xmlns:svg="http://www.w3.org/2000/svg"
	 xmlns="http://www.w3.org/2000/svg" xmlns:xlink="http://www.w3.org/1999/xlink" x="0px" y="0px" viewBox="0 0 495.9 285.8"
	 style="enable-background:new 0 0 495.9 285.8;" xml:space="preserve">
<style type="text/css">
	.st0{fill-rule:evenodd;clip-rule:evenodd;fill:#1E843D;}
	.st1{fill-rule:evenodd;clip-rule:evenodd;fill:#5CC133;}
	.st2{clip-path:url(#MapMask_2_);}
</style>
<sodipodi:namedview  bordercolor="#666666" borderopacity="1" gridtolerance="10" guidetolerance="10" id="namedview12" inkscape:current-layer="g20" inkscape:cx="288.11671" inkscape:cy="142.58196" inkscape:pageopacity="0" inkscape:pageshadow="2" inkscape:window-height="1027" inkscape:window-maximized="1" inkscape:window-width="1920" inkscape:window-x="-8" inkscape:window-y="-8" inkscape:zoom="2.1091071" objecttolerance="10" pagecolor="#ffffff" showgrid="false">
	</sodipodi:namedview>
<g id="g18" transform="matrix(1.3333333,0,0,-1.3333333,-313.31946,568.40748)" inkscape:groupmode="layer" inkscape:label="EcoVision">
	<g id="g20">
		<path id="path22" class="st0" d="M235,295c36.8,56.5,119,144.1,201.8,129.7c55.5-7.1,133.5-60.4,170.1-128.7
			c-38.3,56.1-108.8,105.5-172.4,108.2c-69.8,3-124-64.7-94.4-129.7c43.6-81,142.2-65.8,184.5,5.2c-17.7-27.3-27.2-50.7-76.3-65.3
			c-107-20.2-153.9,84-111.9,165.9c-29.9-22-57-47.5-77.8-80.7c8.8-31.2,22.8-35.6,30.4-41.4C270.7,256.5,259.1,283,235,295"/>
		<path id="MapMask_1_" class="st1" d="M426.8,394.6c44.9,0,81.2-36.4,81.2-81.3c0-44.9-36.4-81.3-81.2-81.3
			c-44.9,0-81.2,36.4-81.2,81.3C345.6,358.2,381.9,394.6,426.8,394.6"/>
		<g>
			<defs>
				<path id="MapMask" d="M426.8,394.6c44.9,0,81.2-36.4,81.2-81.3c0-44.9-36.4-81.3-81.2-81.3c-44.9,0-81.2,36.4-81.2,81.3
					C345.6,358.2,381.9,394.6,426.8,394.6"/>
			</defs>
			<clipPath id="MapMask_2_">
				<use xlink:href="#MapMask"  style="overflow:visible;"/>
			</clipPath>
			<g id="Map" class="st2">
				<path id="path26" class="st0" d="M381,246.1c-1.3,0.9-2.6,1.8-3.8,2.8c0.1,0.4,0.1,1,0,1.9c-0.4,2.9,0,4.6,0,8.1
					c0,3.5,2,1.8-0.3,5.2c-2.2,3.4-0.9,1.2-3,6.3c-2.1,5.1-2.8,3.4-2.5,6.4c0.3,3,0.5,5.5,0.8,7.9c0.3,2.4,1.7,3.8,0.1,6.3
					c-1.6,2.5,0.1,1.2-2.5,3.1c-2.6,1.9-2.2-0.1-4.4,4.1c-2.2,4.2-2.4,4.7-3.4,7.1c-1,2.4-1.7,5.1-3.1,7.1c-1.4,2-2.2,2.2-2.2,3.5
					c0,1.3,0.8,10.2,1.2,12.8c0.4,2.6,3.8,11,3.8,11.7c0,0.7,0.9,1.7,0.4,4.2c-0.5,2.5-0.5,5.9-0.5,7.9c0,2-0.4,4.2-1,5.5
					c-0.2,0.3-0.4,0.8-0.6,1.3c3.2,4.7,6.9,9,10.9,12.9c0.5-0.7,1-1.6,1.3-2.9c0.8-3.1-0.7-2,0.8-4.8c1.4-2.9,2.9-2,2.9-3.9
					c0-2-1.7-3.1-0.4-3.8c1.3-0.7,3.3,0.4,5-0.5c1.7-0.9,2.5-4.2,2.4-0.9c-0.5,11.8,3.2,5.6,3.4,5.6c2.1,0.4-2.1-2.1-1.2-4.8
					c0.9-2.8,2.1-3.7,1.7-5c-0.4-1.3-1.6-2.5-2.1-3.4c-0.5-0.9-5.1-1-5.8-2.6c-0.7-1.6-1.8-3.1-0.5-5.6c1.3-2.5,1.4-4.2,2.5-4.8
					c1-0.7,2,0.1,3,2c1,1.8,2.6,6.2,3.3,4.2c0.7-2,0.3-2.9,1.6-4.6c1.3-1.7,2.9-3,3.4-6.9c0.5-3.9,0.5-5.6,0.7-6.9
					c0.1-1.3-0.7-2-3-0.4c-2.4,1.6-4.2,2.5-4.2,0.7c0-1.8,0.8-2-1.2-2.4c-2-0.4-3.8-1.2-4.2-2.2c-0.4-1-3.9-3.8-4.5-4.7
					c-0.5-0.9-0.5-2.2-1.7-3.1c-1.2-0.9-1.3-2.1-2.2-0.1c-0.9,2-1,3.1-3,2.4c-2-0.8-1.7,2.5-2.9-1.4c-1.2-3.9-0.2-6.1,1.7-8.3
					c1.9-2.2,2.6-3.1,2.8-5.6c0.1-2.5-1.6-2.4,0.5-3.4c2.1-1,3.7-0.1,6.4-1.4c2.8-1.3,4.3-3.5,5.2-4.7c0.9-1.2,2.6-3.4,3.8-5.6
					c1.2-2.2,0.8-2,2.5-3c1.7-1,3.9-2.2,5.5-3.7c1.6-1.4,3-2.4,2.4-3.4c-0.7-1-2.2-1.7-2.4-4.1c-0.1-2.4,0-2.8-2.2-4.7
					c-2.2-2-4.3-1-5.4-3.7c-1.1-2.6,0.1-2.4-1.6-4.1c-1.7-1.7-2.6,0.5-3.4-3c-0.8-3.5-1.3-3.7-0.7-5.8L381,246.1z"/>
				<path id="path28" class="st0" d="M388.9,358.6c0.4-3.8,0.3-4.2,1-6.4c0.8-2.2,0.9-0.9-0.3-4c-1.1-3.2-2.6-2.9-1.6-5.2
					c1.1-1.3,3.6,0.5,4.4,3.1c0.9,2.6,1.6,8.5,1.6,9.7c0,1.2-1.3,2.8-1.3,2.8H388.9z"/>
				<path id="path30" class="st0" d="M390.7,362.9c0.3,1.6-0.1,1.8,1.3,2.8c1.4,0.9,1.4,1,4.3,3.5c2.9,2.5,2.9,2.8,3.9,3.9
					c1,1.2,3.5,0.8,3.5,0.8s0.3-2,2.5-2.1c2.2-0.1,8,1.2,10.4,0.1c2.4-1,1.8-2.5,2.8-3.4c0.9-0.9,0.8-1.8,1.8-2
					c1-0.1,1.4-1.3-0.1-2.4c-1.6-1-2.5-1.4-2.5-5c0-3.5-1.8-5.5-2.5-7.7c-0.7-2.2,1-2.5-0.4-3.9c-1.4-1.4,0,1.3-4.7-2.2
					c-4.7-3.5-3.5-0.5-6.6-6.2c-3-5.6-1.9-4.3-3.6-6.7c-1.7-2.4-3.2-0.4-2.4,4.4c0.8,4.7-0.9,3.8,0.4,6.8c1.3,3,1.6,2.5,1.7,6.3
					c0.1,3.8,0.1,5.4-0.8,7.7c-0.9,2.4-2.9,4.2-0.8,5.9c2.1,1.7,4.1,2,5.2,3.7c1.2,1.7,1.4,2.1,1.3,2.8c-0.1,0.7-0.7,1.3-2.1,0.1
					c-1.4-1.2-2.6,0.3-4.7-2.8c-2.1-3-1-2.5-3.1-4.3c-2.1-1.8-1.7-3.5-3.3-1.8C390.7,362.9,390.7,362.9,390.7,362.9"/>
				<path id="path32" class="st0" d="M485.9,365.8c2.1-2.6,3.8-5.4,5.5-9.8c1.7-4.5,3.8-7.2,4.2-8c0.4-0.8,0.7,0.9,0.7-8.4
					c0-9.3,0.8-11.5-0.1-15.6c-0.9-4.1-3-2-2.8-4.7c0.3-2.8,1.2-3.7,1.7-5.6c0.5-2,1-2.6-0.3-3.1c-1.3-0.5-3.7,2.6-3.9,1
					c-0.3-1.6,1.1-1.6,1.2-3.9c0.1-2.4-1.3-2.4-1.4-4.6c-0.1-2.2,0.1-4.3-0.7-6.4c-0.8-2.1-0.3-2.6-1.8-2.8
					c-1.6-0.1-2.9-0.5-3.4,0.9c-0.5,1.4-3.3,3.9-4.2,2.9c-0.9-1-2.1-2.6-3-4.8c-0.9-2.2-0.3-4.1-1.7-5.4c-1.4-1.3-2.4-4.6-3,0.3
					c-0.7,4.8-0.1,5.2-2.2,6.4c-2.1,1.2-2.5,1.7-4.6,1.8c-2.1,0.1-5.9,1.2-5.2-0.3c0.7-1.4,7.2-0.3,1.7-3.9
					c-5.5-3.7-5.2-4.6-6.2-5.1c-0.9-0.5-1.8-3.8-2.9,0.1c-1,3.9-3.7,8.1-3.7,8.1s-2.4,0.8-1.6-2.1c0.8-2.9,1.6-6.9,3.4-8.5
					c1.8-1.6,6.6-2.4,6.6-3.7c0-1.3-7.5-6.4-7.6-9.3c-0.1-2.9-3.8-12.7-5-14.4c-1.2-1.7-2.4-3.5-3.8-5.5c-1.4-2-1.3-3.3-3.3-3.1
					c-2,0.1-2-2.6-3.5,1.3c-1.6,3.9-1.8,3-1.7,6c0.1,3-0.8,6.8-0.8,8.1c0,1.3,0.8,2.8,0.4,4.8c-0.4,2.1-1.3,1.6-2.2,4.6
					c-0.9,3-0.1,3.1-1.6,4.5c-1.4,1.3-1,1.2-5.1,1.4c-4.1,0.3-4.2-1-6.3,0.9c-2.1,2-4.1,2.5-4.7,5c-0.7,2.5-1.6,3-1.2,5.8
					c0.4,2.8-1.6,4.1,1.2,5.1c2.8,1,4.7,1.2,5.2,3.3c0.5,2.1,1,2,0.8,3.7c-0.3,1.7,0.4,1.1,1.7,1.3c1.2,0.2,5.6,0.4,6,0.3
					c0.4-0.1,1.4,0,2.5-1.1c1.1-1.1,0.5-1.8,3.1-2.6c2.7-0.7,3.9-1.2,7.7-1c3.9,0.2,6.2-1.1,6.7,1.2c0.5,2.3,4.5,2.2,0.5,3.4
					c-4,1.2-4.9,1.1-7.5,1.2c-2.6,0.1-2.2,0.7-2.8,2.5c-0.7,1.8-1.8,4.3-2.6,3.3c-0.8-0.9-0.9-4-2.2-3.4c-1.2,0.6-0.6,1.9-2.4,2.1
					c-1.8,0.2-3.5,1.6-4.7,0c-1.2-1.6-1.4-2.3-2.5-3.3c-1-1-2.2-2.2-2.7-1.9c-0.5,0.3-1,1-1.2,1.4c-0.2,0.4-1.6-0.2-0.7,2.1
					c1,2.3,2.1,2.5,3.4,3.8c1.3,1.3,1.9,0.2,1.9,2.6c0,2.4,0.9,2.7-0.3,4.1c-1.2,1.4-1.9,1-2.4,3.3c-0.5,2.3-0.5,2.5,0.3,3.7
					c0.8,1.2-0.2,2.2,1,1.8c1.2-0.3,1.4-0.7,2.6-2.6c1.2-2,0.9-4.2,3-2.2c2.2,2,1.8,1.7,3.2,2c1.4,0.3,0.1-0.3,2.7-0.5
					c2.6-0.2,1.8-2,4,0.4c2.2,2.4,2.8,3.9,4.1,4.2c1.4,0.3,0.5,2.8-0.3,2.8c-0.8,0-2.1-0.9-1,2.3c1,3.1,0.7,5.8-0.8,4.4
					c-1.4-1.4-1.2-1.7-2.7-4.8c-1.5-3.1-1.9-5.7-2.5-6.6c-0.6-0.9-1.3-2.6-1.7-1.8c-0.4,0.9,0.1,1.9-1.2,2.8c-1.3,0.9-2.3,1.3-2,3.2
					c0.3,1.9,0.8,2.6,1.6,5c0.8,2.4-0.9,1.8,2.8,3.6c3.7,1.8,5.6,4.8,8.1,5.6c2.4,0.8,3.5,1.2,4.5,0c1.1-1.2,2.7-1.3,0.7-2.6
					c-2-1.3-3.3-2-2.8-3.1c0.6-1.1,0.2-3.5,2.4-1.7c2.2,1.8,2,1,4.1,3.4c2.1,2.4,3.5,4,5.2,3.7c1.7-0.3,2.8-0.9,4.8-2.6
					c2.1-1.7,4.3-5.2,5.6-5.5c1.3-0.3,2.8-1.3,0.3,3.3c-2.5,4.6-5.1,6.9-5.9,8.1c-0.8,1.2-2.7,2.4-0.3,3.9c2.4,1.5,3.1,1.6,3.3,3.3
					c0.2,1.7,0.3,4.6,1.6,6.5c1.3,1.9,1.1,5.6,3.6,2.4c2.6-3.2,1.8-3.7,5.8-3.5c4,0.2,5.2,1.2,6.4,2c1.2,0.8,2.6,2.1,3.2,2.2
					C485,365.1,485.9,365.8,485.9,365.8"/>
			</g>
		</g>
		<path id="path34" class="st0" d="M538,334.6c3-22.4-37.4-24.6-13.1-50.5c10.5,10.3,17.1,22.5,18.9,37c1.8-14.2-3.6-26.1-11.7-37.2
			C561.7,293.3,557,319.6,538,334.6"/>
		<path id="path36" class="st1" d="M548,286.7c3,2.4,6.6,9,6.6,9c10.6-3.7,17-9.4,19.4-17.2c-17.3,5.2-27.8-24.6-39.6-0.3
			c5.9,1.5,8.2,3.4,12.5,6c0.1-0.2,18,1.7,16.9,2.2C562.4,286,547.7,286.3,548,286.7"/>
	</g>
</g>
</svg>
